# xmcd
#
# Track frame offsets: 
#        150
#        9281
#        36316
#        44765
#        54377
#        63572
#        74759
#        82961
#        96021
#        107092
#        116605
#        130638
#        141661
#        149301
#        163405
#        175875
#        188056
#        201382
#        212907
#        226437
#        233338
#        241372
#        260293
#
# Disc length: 3629 seconds
#
# Revision: 0
# Processed by: cddbd v1.5.2PL0 Copyright (c) Steve Scherf et al.
# Submitted via: ExactAudioCopyFreeDBPlugin 1.0
#
DISCID=560e2b17
DTITLE=Kortmanovci - Diery do sveta
DYEAR=2015
DGENRE=Country
TTITLE0=Hej -rum!
TTITLE1=Cesta pod zem sa v pekle nekonci
TTITLE2=Tam, kde hlboka je priepast
TTITLE3=Kvapla kvapka z kvapla
TTITLE4=Ty si na vine
TTITLE5=Ten, co jaskyne pozna
TTITLE6=Hladali ma
TTITLE7=Gulasova
TTITLE8=Patri k nam
TTITLE9=Sme z jednej krvi
TTITLE10=Vybral som sa do vrchov
TTITLE11=Trinasta komnata
TTITLE12=Modry den
TTITLE13=Kilometre v nohach
TTITLE14=Obycajny den
TTITLE15=Country bal
TTITLE16=Meni sa cas
TTITLE17=Lietava
TTITLE18=Cicmianska balada
TTITLE19=Jesenna piesen
TTITLE20=Pitny rezim
TTITLE21=Zelena a modra
TTITLE22=Smola na patach
EXTD=
EXTT0=
EXTT1=
EXTT2=
EXTT3=
EXTT4=
EXTT5=
EXTT6=
EXTT7=
EXTT8=
EXTT9=
EXTT10=
EXTT11=
EXTT12=
EXTT13=
EXTT14=
EXTT15=
EXTT16=
EXTT17=
EXTT18=
EXTT19=
EXTT20=
EXTT21=
EXTT22=
PLAYORDER=
